<svg width="30" height="24" viewBox="0 0 30 24" fill="none" xmlns="http://www.w3.org/2000/svg">
<path d="M18.4128 0.0587917C17.6158 -0.170914 16.7861 0.293185 16.5564 1.09012L10.5559 22.0918C10.3262 22.8887 10.7903 23.7185 11.5872 23.9482C12.3842 24.1779 13.2139 23.7138 13.4436 22.9168L19.4441 1.91519C19.6738 1.11825 19.2097 0.288497 18.4128 0.0587917ZM22.1912 5.68892C21.6052 6.2749 21.6052 7.22654 22.1912 7.81252L26.3775 12.0035L22.1865 16.1944C21.6005 16.7804 21.6005 17.732 22.1865 18.318C22.7725 18.904 23.7241 18.904 24.3101 18.318L29.5605 13.0676C30.1465 12.4816 30.1465 11.53 29.5605 10.944L24.3101 5.69361C23.7241 5.10762 22.7725 5.10762 22.1865 5.69361L22.1912 5.68892ZM7.8135 5.68892C7.22752 5.10294 6.27588 5.10294 5.6899 5.68892L0.439487 10.9393C-0.146496 11.5253 -0.146496 12.4769 0.439487 13.0629L5.6899 18.3133C6.27588 18.8993 7.22752 18.8993 7.8135 18.3133C8.39948 17.7274 8.39948 16.7757 7.8135 16.1897L3.62255 12.0035L7.8135 7.81252C8.39948 7.22654 8.39948 6.2749 7.8135 5.68892Z" fill="#B84480"/>
</svg>
