<svg width="91" height="90" viewBox="0 0 91 90" fill="none" xmlns="http://www.w3.org/2000/svg">
<path d="M46.4081 10.8C40.0325 10.8 33.9328 12.5037 28.5382 15.7113L41.096 22.4543C46.7444 25.4873 50.7431 30.6773 52.3073 36.8297L52.8592 37.6594L58.9378 46.7754L60.1753 48.6352C63.4927 48.7684 66.0113 51.1917 67.0553 55.3641C68.5349 61.2807 64.9466 65.769 61.0964 67.9992C58.4774 69.7128 52.5731 71.1 47.3081 71.1C38.8247 71.1 30.6702 67.7748 26.028 62.4234C22.7844 58.683 21.4328 54.1704 22.1186 49.3734C22.124 49.3338 22.1448 49.3023 22.1538 49.2645C22.17 49.2033 22.1901 49.1462 22.2171 49.0922C22.2423 49.0454 22.2708 49.0053 22.3014 48.9621C22.341 48.9099 22.3811 48.8647 22.4315 48.8215C22.4675 48.7909 22.5079 48.7675 22.5475 48.7441C22.6051 48.7081 22.6637 48.6779 22.7303 48.6563C22.7789 48.6401 22.8293 48.6336 22.8815 48.6246C22.9265 48.6192 22.9631 48.6 23.0081 48.6C23.0315 48.6 23.048 48.6123 23.0714 48.6141C23.093 48.6159 23.1131 48.607 23.1347 48.6105C23.1743 48.616 23.2094 48.6384 23.2472 48.6492C23.3066 48.6654 23.3619 48.682 23.4159 48.709C23.4681 48.736 23.5115 48.7679 23.5565 48.8039C23.6015 48.8399 23.6453 48.8749 23.6831 48.9199C23.7209 48.9631 23.7492 49.0101 23.778 49.0605C23.8068 49.1091 23.8339 49.1577 23.8519 49.2117C23.8717 49.2693 23.8798 49.3298 23.887 49.391C23.8888 49.427 23.9081 49.4604 23.9081 49.5C23.9081 52.0218 24.6678 53.9571 26.2284 55.4097C29.0562 58.0431 34.6052 59.0939 42.7448 58.5035C46.865 58.2101 50.1412 57.4633 52.7116 56.2429C52.7098 56.1961 52.7116 56.1109 52.7116 56.0461L50.8694 54.8156L42.7835 49.4297L42.4671 49.4015C35.7657 48.8417 29.6978 45.373 25.8206 39.8812L16.7784 27.0738C13.191 32.6934 11.3081 39.1464 11.3081 45.9C11.3081 65.2536 27.0545 81 46.4081 81C65.7617 81 81.5081 65.2536 81.5081 45.9C81.5081 26.5464 65.7617 10.8 46.4081 10.8ZM11.1604 10.8141C10.9662 10.8462 10.784 10.9414 10.6436 11.0953C10.4366 11.3239 10.4152 11.6247 10.4854 11.9109L28.7596 37.8035C31.6342 41.8769 35.9481 44.6023 40.7901 45.5203L40.7936 45.5027C40.916 43.2743 41.7186 41.1533 43.0506 39.5297C44.388 37.8989 46.2209 36.7762 48.3557 36.2848L48.4014 36.2742C46.8606 31.7346 43.6964 27.9366 39.3944 25.6254L11.7405 10.9125C11.5578 10.8135 11.3546 10.7819 11.1604 10.8141ZM49.8042 39.6563L49.1995 39.7969C47.8279 40.1119 46.7055 40.7889 45.8667 41.8113C45.0117 42.8517 44.4992 44.2343 44.4182 45.7031L44.3901 46.2164L52.803 51.8203C53.5302 50.5477 54.5976 49.5012 55.8792 48.7758L49.8042 39.6563ZM59.8483 51.307C59.7151 51.307 59.5808 51.312 59.444 51.3246C57.59 51.5082 55.9433 52.9351 55.5311 54.7207C55.1099 56.5513 55.7196 58.3469 57.1272 59.4071C58.839 60.6959 59.0629 62.5976 59.0503 64.466L59.0397 66.1852L60.46 65.2149C62.071 64.1133 65.6818 61.0111 64.4362 56.0215C63.6748 52.9633 62.0461 51.307 59.8483 51.307Z" fill="#B84480"/>
</svg>
