<svg width="91" height="90" viewBox="0 0 91 90" fill="none" xmlns="http://www.w3.org/2000/svg">
<path d="M74.3094 3.59998C67.3614 3.59998 61.7094 9.25198 61.7094 16.2C61.7094 19.5224 63.0111 22.5387 65.1195 24.7922L50.0551 43.2H29.1652C28.2871 37.1041 23.0446 32.4 16.7094 32.4C9.76138 32.4 4.10938 38.052 4.10938 45C4.10938 51.948 9.76138 57.6 16.7094 57.6C23.0446 57.6 28.2871 52.8958 29.1652 46.8H50.0129L64.4691 65.9496C62.7453 68.1053 61.7094 70.8313 61.7094 73.8C61.7094 80.748 67.3614 86.4 74.3094 86.4C81.2574 86.4 86.9094 80.748 86.9094 73.8C86.9094 66.852 81.2574 61.2 74.3094 61.2C71.6328 61.2 69.1558 62.0461 67.1129 63.4746L53.198 45.0457L67.925 27.0422C69.8003 28.1509 71.9773 28.8 74.3094 28.8C81.2574 28.8 86.9094 23.148 86.9094 16.2C86.9094 9.25198 81.2574 3.59998 74.3094 3.59998Z" fill="#B84480"/>
</svg>
