<svg width="692" height="220" viewBox="0 0 692 220" fill="none" xmlns="http://www.w3.org/2000/svg">
<path d="M155.88 205L175.56 147.8H184.68L204.04 205H197.16L191.56 188.52H167.96L162.44 205H155.88ZM179.8 153.56L169.88 183H189.72L179.8 153.56ZM215.441 205V153.48H198.801V147.8H239.041V153.48H222.401V205H215.441ZM243.725 205V147.8H253.405L271.085 192.36L288.205 147.8H297.805V205H290.845V156.84L271.885 205H269.725L250.125 156.84V205H243.725ZM332.961 205.72C316.081 205.72 304.641 192.76 304.641 176.76V176.12C304.641 159.88 316.001 147.08 332.801 147.08C349.601 147.08 360.721 159.88 360.721 175.96V176.6C360.721 192.76 349.601 205.72 332.961 205.72ZM332.961 199.96C345.681 199.96 353.521 190.36 353.521 176.52V175.88C353.521 163.08 346.001 152.68 332.801 152.68C319.521 152.68 311.841 162.44 311.841 176.04V176.68C311.841 190.52 321.041 199.96 332.961 199.96ZM385.183 205.72C369.903 205.72 364.383 197.32 363.343 187.56H370.063C370.943 194.36 373.663 200.12 385.183 200.12C392.543 200.12 398.223 195.8 398.223 189.32C398.223 182.84 395.263 180.12 384.383 178.36C372.383 176.52 365.263 172.76 365.263 162.6C365.263 153.8 372.863 147.08 383.663 147.08C395.103 147.08 402.223 152.68 403.343 162.84H397.103C395.743 155.64 391.583 152.68 383.663 152.68C375.823 152.68 371.743 156.6 371.743 161.96C371.743 167.56 373.823 170.44 385.503 172.2C398.223 174.2 404.943 178.04 404.943 188.84C404.943 198.44 396.543 205.72 385.183 205.72ZM428.431 205V147.8H443.551C463.231 147.8 472.511 159.96 472.511 175.88V176.6C472.511 192.44 463.391 205 443.391 205H428.431ZM435.391 199.32H443.231C457.951 199.32 465.311 190.52 465.311 176.52V175.88C465.311 162.68 458.911 153.4 443.151 153.4H435.391V199.32ZM479.734 205V147.8H486.694V205H479.734ZM521.602 205.72C504.002 205.72 493.922 193.48 493.922 176.76V176.12C493.922 159.4 505.202 146.92 521.602 146.92C532.962 146.92 543.122 152.2 544.882 165.08H537.922C536.322 155.96 530.082 152.44 521.762 152.44C508.642 152.44 501.122 162.04 501.122 176.04V176.68C501.122 190.84 508.162 200.12 521.602 200.12C534.002 200.12 539.362 192.04 539.602 181.88H522.882V176.12H546.402V180.36C546.402 196.92 536.242 205.72 521.602 205.72ZM553.65 205V147.8H560.61V205H553.65ZM582.398 205V153.48H565.758V147.8H605.998V153.48H589.358V205H582.398ZM600.736 205L620.416 147.8H629.536L648.896 205H642.016L636.416 188.52H612.816L607.296 205H600.736ZM624.656 153.56L614.736 183H634.576L624.656 153.56ZM654.162 205V147.8H661.122V199.32H687.282V205H654.162Z" fill="white"/>
<path d="M55.0498 45.1131L93.0348 64.1199L55.0498 83.1268L55.0498 45.1131Z" fill="#FAA819" stroke="white" stroke-width="2"/>
<path d="M53.6572 123.432L15.6722 104.425L53.6572 85.4181V123.432Z" fill="#FCB415" stroke="white" stroke-width="2"/>
<path d="M53.6572 83.1264L15.6722 64.1196L53.6572 45.1127V83.1264Z" fill="#FCB415" stroke="white" stroke-width="2"/>
<path d="M93.9599 62.9758L55.975 43.969L93.9599 24.9621V62.9758Z" fill="#B84480" stroke="white" stroke-width="2"/>
<path d="M134.261 83.1264L96.2757 64.1196L134.261 45.1127V83.1264Z" fill="#B84480" stroke="white" stroke-width="2"/>
<path d="M174.571 103.28L136.586 84.2727L174.571 65.2658V103.28Z" fill="#B84480" stroke="white" stroke-width="2"/>
<path d="M134.261 123.432L96.2757 104.425L134.261 85.4181V123.432Z" fill="#B84480" stroke="white" stroke-width="2"/>
<path d="M93.9599 143.583L55.975 124.576L93.9599 105.57V143.583Z" fill="#FCB415" stroke="white" stroke-width="2"/>
<path d="M134.261 163.735L96.2757 144.728L134.261 125.722V163.735Z" fill="#FCB415" stroke="white" stroke-width="2"/>
<path d="M14.7393 65.2661L52.7243 84.273L14.7393 103.28L14.7393 65.2661Z" fill="#FAA819" stroke="white" stroke-width="2"/>
<path d="M55.0498 85.4185L93.0348 104.425L55.0498 123.432L55.0498 85.4185Z" fill="#FAA819" stroke="white" stroke-width="2"/>
<path d="M95.3526 105.57L133.338 124.577L95.3526 143.584V105.57Z" fill="#FAA819" stroke="white" stroke-width="2"/>
<path d="M55.0498 4.80935L93.0348 23.8162L55.0498 42.8231L55.0498 4.80935Z" fill="#A0366D" stroke="white" stroke-width="2"/>
<path d="M95.3526 24.9627L133.338 43.9695L95.3526 62.9764V24.9627Z" fill="#A0366D" stroke="white" stroke-width="2"/>
<path d="M135.655 85.4185L173.64 104.425L135.655 123.432V85.4185Z" fill="#A0366D" stroke="white" stroke-width="2"/>
<path d="M135.655 45.1131L173.64 64.1199L135.655 83.1268V45.1131Z" fill="#A0366D" stroke="white" stroke-width="2"/>
</svg>
