<svg width="310" height="276" viewBox="0 0 310 276" fill="none" xmlns="http://www.w3.org/2000/svg">
<path d="M89.25 137.63V204.37L22.5586 171L89.25 137.63Z" fill="#FCB415" stroke="#292929" stroke-width="0.5"/>
<path d="M89.25 71.6299V138.37L22.5586 105L89.25 71.6299Z" fill="#FCB415" stroke="#292929" stroke-width="0.5"/>
<path d="M155.25 38.6299V105.37L88.5586 72L155.25 38.6299Z" fill="#B84480" stroke="#292929" stroke-width="0.5"/>
<path d="M221.25 71.6299V138.37L154.559 105L221.25 71.6299Z" fill="#B84480" stroke="#292929" stroke-width="0.5"/>
<path d="M287.25 104.63V171.37L220.559 138L287.25 104.63Z" fill="#B84480" stroke="#292929" stroke-width="0.5"/>
<path d="M221.25 137.63V204.37L154.559 171L221.25 137.63Z" fill="#B84480" stroke="#292929" stroke-width="0.5"/>
<path d="M155.25 170.63V237.37L88.5586 204L155.25 170.63Z" fill="#FCB415" stroke="#292929" stroke-width="0.5"/>
<path d="M221.25 203.63V270.37L154.559 237L221.25 203.63Z" fill="#FCB415" stroke="#292929" stroke-width="0.5"/>
<path d="M22.75 171.37L22.75 104.63L89.4414 138L22.75 171.37Z" fill="#FAA819" stroke="#292929" stroke-width="0.5"/>
<path d="M88.75 204.37L88.75 137.63L155.441 171L88.75 204.37Z" fill="#FAA819" stroke="#292929" stroke-width="0.5"/>
<path d="M154.75 237.37V170.63L221.441 204L154.75 237.37Z" fill="#FAA819" stroke="#292929" stroke-width="0.5"/>
<path d="M88.75 138.37L88.75 71.6299L155.441 105L88.75 138.37Z" fill="#FAA819" stroke="#292929" stroke-width="0.5"/>
<path d="M89 71.9658L89 6.03418L154.883 39L89 71.9658Z" fill="#A0366D" stroke="#292929"/>
<path d="M88.75 72.3701L88.75 5.62988L155.441 39L88.75 72.3701Z" fill="#A0366D" stroke="#292929" stroke-width="0.5"/>
<path d="M154.75 105.37V38.6299L221.441 72L154.75 105.37Z" fill="#A0366D" stroke="#292929" stroke-width="0.5"/>
<path d="M220.75 204.37V137.63L287.441 171L220.75 204.37Z" fill="#A0366D" stroke="#292929" stroke-width="0.5"/>
<path d="M220.75 138.37V71.6299L287.441 105L220.75 138.37Z" fill="#A0366D" stroke="#292929" stroke-width="0.5"/>
</svg>
