<svg width="25" height="23" viewBox="0 0 25 23" fill="none" xmlns="http://www.w3.org/2000/svg">
<g opacity="0.2">
<path d="M6.21689 14.8956L4.00814 13.7904L6.21689 12.6852V14.8956Z" stroke="white" stroke-width="2"/>
<path d="M6.21689 9.57308L4.00814 8.46786L6.21689 7.36264V9.57308Z" stroke="white" stroke-width="2"/>
<path d="M11.5411 6.9117L9.33236 5.80648L11.5411 4.70126V6.9117Z" stroke="white" stroke-width="2"/>
<path d="M16.8692 9.57308L14.6605 8.46786L16.8692 7.36264V9.57308Z" stroke="white" stroke-width="2"/>
<path d="M22.1895 12.2343L19.9808 11.1291L22.1895 10.0239V12.2343Z" stroke="white" stroke-width="2"/>
<path d="M16.8692 14.8956L14.6605 13.7904L16.8692 12.6852V14.8956Z" stroke="white" stroke-width="2"/>
<path d="M11.5411 17.5568L9.33236 16.4516L11.5411 15.3464V17.5568Z" stroke="white" stroke-width="2"/>
<path d="M16.8692 20.2182L14.6605 19.113L16.8692 18.0078V20.2182Z" stroke="white" stroke-width="2"/>
<path d="M2.81436 10.0238L5.02311 11.1291L2.81436 12.2343L2.81436 10.0238Z" stroke="white" stroke-width="2"/>
<path d="M8.14249 12.6852L10.3512 13.7904L8.14249 14.8957V12.6852Z" stroke="white" stroke-width="2"/>
<path d="M13.4628 15.3465L15.6715 16.4517L13.4628 17.5569V15.3465Z" stroke="white" stroke-width="2"/>
<path d="M8.14249 7.36247L10.3512 8.46769L8.14249 9.57291V7.36247Z" stroke="white" stroke-width="2"/>
<path d="M7.64249 1.23067L11.4686 3.14518L7.64249 5.05969L7.64249 1.23067Z" stroke="#292929"/>
<path d="M8.14249 2.03996L10.3512 3.14518L8.14249 4.2504V2.03996Z" stroke="white" stroke-width="2"/>
<path d="M13.4628 4.70122L15.6715 5.80643L13.4628 6.91165V4.70122Z" stroke="white" stroke-width="2"/>
<path d="M18.787 12.6852L20.9958 13.7904L18.787 14.8957V12.6852Z" stroke="white" stroke-width="2"/>
<path d="M18.787 7.36247L20.9958 8.46769L18.787 9.57291V7.36247Z" stroke="white" stroke-width="2"/>
</g>
</svg>
