<svg width="50" height="45" viewBox="0 0 50 45" fill="none" xmlns="http://www.w3.org/2000/svg">
<g opacity="0.1">
<path d="M13.434 31.4097L5.78162 27.5806L13.434 23.7516V31.4097Z" stroke="white" stroke-width="2"/>
<path d="M13.434 20.7645L5.78162 16.9355L13.434 13.1065V20.7645Z" stroke="white" stroke-width="2"/>
<path d="M24.0824 15.4419L16.4301 11.6129L24.0824 7.78387V15.4419Z" stroke="white" stroke-width="2"/>
<path d="M34.7269 20.7645L27.0746 16.9355L34.7269 13.1065V20.7645Z" stroke="white" stroke-width="2"/>
<path d="M45.3715 26.087L37.7191 22.258L45.3715 18.429V26.087Z" stroke="white" stroke-width="2"/>
<path d="M34.7269 31.4097L27.0746 27.5806L34.7269 23.7516V31.4097Z" stroke="white" stroke-width="2"/>
<path d="M24.0824 36.7323L16.4301 32.9033L24.0824 29.0743V36.7323Z" stroke="white" stroke-width="2"/>
<path d="M34.7269 42.0548L27.0746 38.2258L34.7269 34.3968V42.0548Z" stroke="white" stroke-width="2"/>
<path d="M4.62853 18.4291L12.2809 22.2581L4.62853 26.0871V18.4291Z" stroke="white" stroke-width="2"/>
<path d="M15.2731 23.7516L22.9254 27.5806L15.2731 31.4096V23.7516Z" stroke="white" stroke-width="2"/>
<path d="M25.9176 29.0742L33.5699 32.9032L25.9176 36.7322V29.0742Z" stroke="white" stroke-width="2"/>
<path d="M15.2731 13.1065L22.9254 16.9355L15.2731 20.7645V13.1065Z" stroke="white" stroke-width="2"/>
<path d="M14.7731 1.65203L24.0428 6.29032L14.7731 10.9286V1.65203Z" stroke="#292929"/>
<path d="M15.2731 2.46131L22.9254 6.29032L15.2731 10.1193V2.46131Z" stroke="white" stroke-width="2"/>
<path d="M25.9176 7.78395L33.5699 11.613L25.9176 15.442V7.78395Z" stroke="white" stroke-width="2"/>
<path d="M36.566 23.7516L44.2184 27.5806L36.566 31.4096V23.7516Z" stroke="white" stroke-width="2"/>
<path d="M36.566 13.1065L44.2184 16.9355L36.566 20.7645V13.1065Z" stroke="white" stroke-width="2"/>
</g>
</svg>
